<svg xmlns="http://www.w3.org/2000/svg" xmlns:xlink="http://www.w3.org/1999/xlink" width="500" zoomAndPan="magnify" viewBox="0 0 375 374.999991" height="500" preserveAspectRatio="xMidYMid meet" version="1.0"><defs><g/><clipPath id="b5556998ee"><path d="M 119.996094 64.339844 L 254.566406 64.339844 L 254.566406 120 L 119.996094 120 Z M 119.996094 64.339844 " clip-rule="nonzero"/></clipPath><clipPath id="c703e791c7"><path d="M 119.996094 119 L 219 119 L 219 214.613281 L 119.996094 214.613281 Z M 119.996094 119 " clip-rule="nonzero"/></clipPath></defs><rect x="-37.5" width="450" fill="#ffffff" y="-37.499999" height="449.999989" fill-opacity="1"/><rect x="-37.5" width="450" fill="#ffffff" y="-37.499999" height="449.999989" fill-opacity="1"/><rect x="-37.5" width="450" fill="#1a1b26" y="-37.499999" height="449.999989" fill-opacity="1"/><g clip-path="url(#b5556998ee)"><path fill="#737373" d="M 137.078125 64.488281 L 237.519531 64.488281 C 238.078125 64.488281 238.636719 64.515625 239.195312 64.570312 C 239.75 64.625 240.304688 64.707031 240.851562 64.816406 C 241.402344 64.925781 241.945312 65.0625 242.480469 65.226562 C 243.015625 65.386719 243.539062 65.578125 244.058594 65.792969 C 244.574219 66.007812 245.078125 66.246094 245.574219 66.511719 C 246.066406 66.773438 246.546875 67.0625 247.011719 67.375 C 247.476562 67.6875 247.925781 68.019531 248.355469 68.375 C 248.789062 68.730469 249.203125 69.109375 249.597656 69.503906 C 249.996094 69.902344 250.371094 70.316406 250.726562 70.75 C 251.078125 71.183594 251.414062 71.636719 251.722656 72.101562 C 252.035156 72.566406 252.320312 73.046875 252.585938 73.542969 C 252.847656 74.039062 253.089844 74.546875 253.300781 75.0625 C 253.515625 75.582031 253.703125 76.109375 253.867188 76.644531 C 254.027344 77.183594 254.164062 77.726562 254.273438 78.277344 C 254.382812 78.828125 254.464844 79.382812 254.519531 79.941406 C 254.574219 80.5 254.601562 81.058594 254.601562 81.621094 L 254.601562 102.527344 C 254.601562 103.085938 254.574219 103.648438 254.519531 104.207031 C 254.464844 104.765625 254.382812 105.320312 254.273438 105.867188 C 254.164062 106.417969 254.027344 106.960938 253.867188 107.5 C 253.703125 108.035156 253.515625 108.5625 253.300781 109.082031 C 253.089844 109.601562 252.847656 110.105469 252.585938 110.601562 C 252.320312 111.097656 252.035156 111.578125 251.722656 112.042969 C 251.414062 112.511719 251.078125 112.960938 250.726562 113.394531 C 250.371094 113.828125 249.996094 114.242188 249.597656 114.640625 C 249.203125 115.035156 248.789062 115.414062 248.355469 115.769531 C 247.925781 116.125 247.476562 116.460938 247.011719 116.769531 C 246.546875 117.082031 246.066406 117.371094 245.574219 117.636719 C 245.078125 117.898438 244.574219 118.140625 244.058594 118.355469 C 243.539062 118.570312 243.015625 118.757812 242.480469 118.921875 C 241.945312 119.082031 241.402344 119.21875 240.851562 119.328125 C 240.304688 119.4375 239.75 119.519531 239.195312 119.574219 C 238.636719 119.628906 238.078125 119.65625 237.519531 119.65625 L 119.996094 119.65625 L 119.996094 81.621094 C 119.996094 81.058594 120.023438 80.5 120.078125 79.941406 C 120.132812 79.382812 120.214844 78.828125 120.324219 78.277344 C 120.433594 77.726562 120.570312 77.183594 120.730469 76.644531 C 120.894531 76.109375 121.082031 75.582031 121.296875 75.0625 C 121.511719 74.546875 121.75 74.039062 122.011719 73.542969 C 122.277344 73.046875 122.5625 72.566406 122.875 72.101562 C 123.183594 71.636719 123.519531 71.183594 123.871094 70.75 C 124.226562 70.316406 124.601562 69.902344 125 69.503906 C 125.394531 69.109375 125.808594 68.730469 126.242188 68.375 C 126.671875 68.019531 127.121094 67.6875 127.585938 67.375 C 128.050781 67.0625 128.53125 66.773438 129.023438 66.511719 C 129.519531 66.246094 130.023438 66.007812 130.539062 65.792969 C 131.058594 65.578125 131.582031 65.386719 132.117188 65.226562 C 132.652344 65.0625 133.195312 64.925781 133.746094 64.816406 C 134.292969 64.707031 134.847656 64.625 135.402344 64.570312 C 135.960938 64.515625 136.519531 64.488281 137.078125 64.488281 Z M 137.078125 64.488281 " fill-opacity="1" fill-rule="nonzero"/></g><g clip-path="url(#c703e791c7)"><path fill="#737373" d="M 200.949219 119.65625 L 119.996094 119.65625 L 119.996094 214.464844 L 159.515625 174.816406 L 200.949219 174.816406 C 201.511719 174.816406 202.070312 174.785156 202.625 174.730469 C 203.183594 174.675781 203.734375 174.59375 204.285156 174.484375 C 204.832031 174.375 205.375 174.238281 205.910156 174.078125 C 206.445312 173.914062 206.972656 173.726562 207.488281 173.511719 C 208.003906 173.296875 208.511719 173.054688 209.003906 172.792969 C 209.496094 172.527344 209.976562 172.238281 210.441406 171.925781 C 210.90625 171.617188 211.355469 171.28125 211.789062 170.925781 C 212.21875 170.570312 212.632812 170.195312 213.03125 169.796875 C 213.425781 169.398438 213.800781 168.984375 214.15625 168.550781 C 214.511719 168.117188 214.84375 167.667969 215.152344 167.199219 C 215.464844 166.734375 215.753906 166.253906 216.015625 165.757812 C 216.28125 165.265625 216.519531 164.757812 216.734375 164.238281 C 216.945312 163.71875 217.136719 163.191406 217.296875 162.65625 C 217.460938 162.117188 217.59375 161.574219 217.703125 161.023438 C 217.8125 160.476562 217.894531 159.921875 217.949219 159.363281 C 218.003906 158.804688 218.03125 158.242188 218.03125 157.683594 L 218.03125 136.78125 C 218.03125 136.222656 218.003906 135.660156 217.949219 135.105469 C 217.894531 134.546875 217.8125 133.992188 217.703125 133.441406 C 217.59375 132.890625 217.457031 132.347656 217.296875 131.8125 C 217.132812 131.273438 216.945312 130.746094 216.730469 130.230469 C 216.515625 129.710938 216.277344 129.203125 216.015625 128.710938 C 215.75 128.214844 215.460938 127.734375 215.152344 127.269531 C 214.839844 126.800781 214.507812 126.351562 214.152344 125.917969 C 213.796875 125.484375 213.421875 125.070312 213.027344 124.671875 C 212.632812 124.277344 212.21875 123.902344 211.785156 123.542969 C 211.351562 123.1875 210.902344 122.855469 210.4375 122.542969 C 209.972656 122.230469 209.496094 121.945312 209 121.679688 C 208.507812 121.414062 208.003906 121.175781 207.484375 120.960938 C 206.96875 120.746094 206.445312 120.558594 205.910156 120.394531 C 205.375 120.234375 204.832031 120.097656 204.28125 119.988281 C 203.734375 119.878906 203.179688 119.796875 202.625 119.742188 C 202.066406 119.683594 201.511719 119.65625 200.949219 119.65625 Z M 200.949219 119.65625 " fill-opacity="1" fill-rule="nonzero"/><path fill="#03989e" d="M 200.949219 119.65625 L 137.078125 119.65625 C 136.519531 119.65625 135.960938 119.683594 135.402344 119.742188 C 134.847656 119.796875 134.292969 119.878906 133.746094 119.988281 C 133.195312 120.097656 132.652344 120.234375 132.117188 120.394531 C 131.582031 120.558594 131.058594 120.746094 130.539062 120.960938 C 130.023438 121.175781 129.519531 121.417969 129.023438 121.679688 C 128.53125 121.945312 128.050781 122.234375 127.585938 122.546875 C 127.121094 122.855469 126.671875 123.191406 126.242188 123.546875 C 125.808594 123.902344 125.394531 124.277344 125 124.675781 C 124.601562 125.074219 124.226562 125.488281 123.871094 125.921875 C 123.519531 126.355469 123.183594 126.804688 122.875 127.273438 C 122.5625 127.738281 122.277344 128.21875 122.011719 128.714844 C 121.75 129.207031 121.511719 129.714844 121.296875 130.234375 C 121.082031 130.75 120.894531 131.28125 120.730469 131.816406 C 120.570312 132.351562 120.433594 132.898438 120.324219 133.449219 C 120.214844 133.996094 120.132812 134.550781 120.078125 135.109375 C 120.023438 135.667969 119.996094 136.226562 119.996094 136.789062 L 119.996094 214.464844 L 152.882812 181.480469 C 153.933594 180.425781 155.078125 179.484375 156.316406 178.652344 C 157.550781 177.824219 158.859375 177.121094 160.230469 176.550781 C 161.605469 175.980469 163.023438 175.546875 164.484375 175.253906 C 165.941406 174.960938 167.417969 174.816406 168.90625 174.816406 L 200.949219 174.816406 C 201.511719 174.816406 202.070312 174.785156 202.625 174.730469 C 203.183594 174.675781 203.734375 174.59375 204.285156 174.484375 C 204.832031 174.375 205.375 174.238281 205.910156 174.078125 C 206.445312 173.914062 206.972656 173.726562 207.488281 173.511719 C 208.003906 173.296875 208.511719 173.054688 209.003906 172.792969 C 209.496094 172.527344 209.976562 172.238281 210.441406 171.925781 C 210.90625 171.617188 211.355469 171.28125 211.789062 170.925781 C 212.21875 170.570312 212.632812 170.195312 213.03125 169.796875 C 213.425781 169.398438 213.800781 168.984375 214.15625 168.550781 C 214.511719 168.117188 214.84375 167.667969 215.152344 167.199219 C 215.464844 166.734375 215.753906 166.253906 216.015625 165.757812 C 216.28125 165.265625 216.519531 164.757812 216.734375 164.238281 C 216.945312 163.71875 217.136719 163.191406 217.296875 162.65625 C 217.460938 162.117188 217.59375 161.574219 217.703125 161.023438 C 217.8125 160.476562 217.894531 159.921875 217.949219 159.363281 C 218.003906 158.804688 218.03125 158.242188 218.03125 157.683594 L 218.03125 136.78125 C 218.03125 136.222656 218.003906 135.660156 217.949219 135.105469 C 217.894531 134.546875 217.8125 133.992188 217.703125 133.441406 C 217.59375 132.890625 217.457031 132.347656 217.296875 131.8125 C 217.132812 131.273438 216.945312 130.746094 216.730469 130.230469 C 216.515625 129.710938 216.277344 129.203125 216.015625 128.710938 C 215.75 128.214844 215.460938 127.734375 215.152344 127.269531 C 214.839844 126.800781 214.507812 126.351562 214.152344 125.917969 C 213.796875 125.484375 213.421875 125.070312 213.027344 124.671875 C 212.632812 124.277344 212.21875 123.902344 211.785156 123.542969 C 211.351562 123.1875 210.902344 122.855469 210.4375 122.542969 C 209.972656 122.230469 209.496094 121.945312 209 121.679688 C 208.507812 121.414062 208.003906 121.175781 207.484375 120.960938 C 206.96875 120.746094 206.445312 120.558594 205.910156 120.394531 C 205.375 120.234375 204.832031 120.097656 204.28125 119.988281 C 203.734375 119.878906 203.179688 119.796875 202.625 119.742188 C 202.066406 119.683594 201.511719 119.65625 200.949219 119.65625 Z M 200.949219 119.65625 " fill-opacity="1" fill-rule="nonzero"/></g><path stroke-linecap="round" transform="matrix(1.112372, 0, 0, 1.12144, 145.324889, 145.028618)" fill="none" stroke-linejoin="miter" d="M 2.499686 2.499834 L 43.880867 2.499834 " stroke="#1a1b26" stroke-width="5" stroke-opacity="1" stroke-miterlimit="4"/><path stroke-linecap="round" transform="matrix(1.118411, 0, 0, 1.12144, 145.324889, 89.629492)" fill="none" stroke-linejoin="miter" d="M 2.500159 2.500448 L 72.716983 2.500448 " stroke="#1a1b26" stroke-width="5" stroke-opacity="1" stroke-miterlimit="4"/><g fill="#ffffff" fill-opacity="1"><g transform="translate(56.953126, 281.25001)"><g><path d="M 12.160156 0.359375 C 17.71875 0.359375 22.039062 -2.640625 22.039062 -7.917969 C 22.039062 -13.757812 17.078125 -14.917969 12.679688 -16 C 9.078125 -16.839844 5.839844 -17.640625 5.839844 -20.679688 C 5.839844 -23.359375 8.398438 -24.957031 11.800781 -24.957031 C 15.199219 -24.957031 17.757812 -23.160156 17.757812 -20.039062 L 21.238281 -20.039062 C 21.238281 -25.117188 17.679688 -28.316406 11.878906 -28.316406 C 6.078125 -28.316406 2.359375 -25.398438 2.359375 -20.558594 C 2.359375 -14.960938 7.121094 -13.800781 11.4375 -12.800781 C 15.078125 -11.917969 18.398438 -11.160156 18.398438 -7.878906 C 18.398438 -4.917969 15.640625 -3.078125 12.121094 -3.078125 C 8.238281 -3.078125 5.398438 -5.121094 5.398438 -8.597656 L 1.800781 -8.597656 C 1.800781 -3.078125 6 0.359375 12.160156 0.359375 Z M 12.160156 0.359375 "/></g></g></g><g fill="#ffffff" fill-opacity="1"><g transform="translate(80.830753, 281.25001)"><g><path d="M 3.800781 0 L 7.320312 0 L 7.320312 -28 L 3.800781 -28 Z M 3.800781 0 "/></g></g></g><g fill="#ffffff" fill-opacity="1"><g transform="translate(91.989646, 281.25001)"><g><path d="M 36.476562 0 L 31.839844 -28 L 28.359375 -28 L 19.078125 -7.441406 L 9.839844 -28 L 6.441406 -28 L 1.71875 0 L 5.320312 0 L 9 -21.839844 L 18.640625 -0.679688 L 19.597656 -0.679688 L 29.238281 -21.839844 L 32.878906 0 Z M 36.476562 0 "/></g></g></g><g fill="#ffffff" fill-opacity="1"><g transform="translate(130.265838, 281.25001)"><g><path d="M 13.839844 -28 L 3.800781 -28 L 3.800781 0 L 7.320312 0 L 7.320312 -10.039062 L 13.839844 -10.039062 C 19.160156 -10.039062 23.117188 -13.878906 23.117188 -19 C 23.117188 -24.160156 19.117188 -28 13.839844 -28 Z M 13.679688 -13.4375 L 7.320312 -13.4375 L 7.320312 -24.597656 L 13.679688 -24.597656 C 17.078125 -24.597656 19.558594 -22.199219 19.558594 -19 C 19.558594 -15.800781 17.078125 -13.4375 13.679688 -13.4375 Z M 13.679688 -13.4375 "/></g></g></g><g fill="#ffffff" fill-opacity="1"><g transform="translate(154.663416, 281.25001)"><g><path d="M 7.320312 -3.28125 L 7.320312 -28 L 3.800781 -28 L 3.800781 0 L 19.597656 0 L 19.597656 -3.28125 Z M 7.320312 -3.28125 "/></g></g></g><g fill="#ffffff" fill-opacity="1"><g transform="translate(175.141381, 281.25001)"><g><path d="M 7.320312 -3.359375 L 7.320312 -12.757812 L 18.597656 -12.757812 L 18.597656 -16 L 7.320312 -16 L 7.320312 -24.636719 L 19.640625 -24.636719 L 19.640625 -28 L 3.800781 -28 L 3.800781 0 L 20.078125 0 L 20.078125 -3.359375 Z M 7.320312 -3.359375 "/></g></g></g><g fill="#ffffff" fill-opacity="1"><g transform="translate(197.259181, 281.25001)"><g/></g></g><g fill="#ffffff" fill-opacity="1"><g transform="translate(207.738135, 281.25001)"><g><path d="M 16.238281 0.441406 C 22.839844 0.441406 28.039062 -3.519531 29.636719 -9.839844 L 26.078125 -9.839844 C 24.597656 -5.558594 20.957031 -3 16.238281 -3 C 10 -3 5.480469 -7.519531 5.480469 -13.960938 C 5.480469 -20.398438 10 -25 16.238281 -25 C 20.839844 -25 24.4375 -22.558594 25.917969 -18.519531 L 29.519531 -18.519531 C 27.917969 -24.558594 22.71875 -28.398438 16.238281 -28.398438 C 7.917969 -28.398438 1.878906 -22.359375 1.878906 -13.960938 C 1.878906 -5.601562 7.917969 0.441406 16.238281 0.441406 Z M 16.238281 0.441406 "/></g></g></g><g fill="#ffffff" fill-opacity="1"><g transform="translate(238.775047, 281.25001)"><g><path d="M 21.796875 -28 L 21.796875 -16.078125 L 7.320312 -16.078125 L 7.320312 -28 L 3.800781 -28 L 3.800781 0 L 7.320312 0 L 7.320312 -12.71875 L 21.796875 -12.71875 L 21.796875 0 L 25.320312 0 L 25.320312 -28 Z M 21.796875 -28 "/></g></g></g><g fill="#ffffff" fill-opacity="1"><g transform="translate(267.932154, 281.25001)"><g><path d="M 23.359375 0 L 27.160156 0 L 15.398438 -28 L 12.121094 -28 L 0.679688 0 L 4.398438 0 L 7.121094 -6.679688 L 20.597656 -6.679688 Z M 13.800781 -23.160156 L 19.277344 -9.917969 L 8.441406 -9.917969 Z M 13.800781 -23.160156 "/></g></g></g><g fill="#ffffff" fill-opacity="1"><g transform="translate(295.809387, 281.25001)"><g><path d="M 21.359375 -28 L 0.839844 -28 L 0.839844 -24.679688 L 9.359375 -24.679688 L 9.359375 0 L 12.839844 0 L 12.839844 -24.679688 L 21.359375 -24.679688 Z M 21.359375 -28 "/></g></g></g><g fill="#ffffff" fill-opacity="1"><g transform="translate(72.128906, 331.500007)"><g><path d="M 20.4375 0 L 23.761719 0 L 13.472656 -24.496094 L 10.601562 -24.496094 L 0.59375 0 L 3.847656 0 L 6.230469 -5.84375 L 18.023438 -5.84375 Z M 12.074219 -20.261719 L 16.867188 -8.679688 L 7.382812 -8.679688 Z M 12.074219 -20.261719 "/></g></g></g><g fill="#ffffff" fill-opacity="1"><g transform="translate(96.518393, 331.500007)"><g><path d="M 12.109375 -24.496094 L 3.324219 -24.496094 L 3.324219 0 L 6.402344 0 L 6.402344 -8.785156 L 12.109375 -8.785156 C 16.761719 -8.785156 20.226562 -12.144531 20.226562 -16.621094 C 20.226562 -21.136719 16.726562 -24.496094 12.109375 -24.496094 Z M 11.96875 -11.757812 L 6.402344 -11.757812 L 6.402344 -21.523438 L 11.96875 -21.523438 C 14.941406 -21.523438 17.113281 -19.421875 17.113281 -16.621094 C 17.113281 -13.824219 14.941406 -11.757812 11.96875 -11.757812 Z M 11.96875 -11.757812 "/></g></g></g><g fill="#ffffff" fill-opacity="1"><g transform="translate(117.863569, 331.500007)"><g><path d="M 12.109375 -24.496094 L 3.324219 -24.496094 L 3.324219 0 L 6.402344 0 L 6.402344 -8.785156 L 12.109375 -8.785156 C 16.761719 -8.785156 20.226562 -12.144531 20.226562 -16.621094 C 20.226562 -21.136719 16.726562 -24.496094 12.109375 -24.496094 Z M 11.96875 -11.757812 L 6.402344 -11.757812 L 6.402344 -21.523438 L 11.96875 -21.523438 C 14.941406 -21.523438 17.113281 -19.421875 17.113281 -16.621094 C 17.113281 -13.824219 14.941406 -11.757812 11.96875 -11.757812 Z M 11.96875 -11.757812 "/></g></g></g><g fill="#ffffff" fill-opacity="1"><g transform="translate(139.208744, 331.500007)"><g><path d="M 6.402344 -2.871094 L 6.402344 -24.496094 L 3.324219 -24.496094 L 3.324219 0 L 17.148438 0 L 17.148438 -2.871094 Z M 6.402344 -2.871094 "/></g></g></g><g fill="#ffffff" fill-opacity="1"><g transform="translate(157.124697, 331.500007)"><g><path d="M 3.324219 0 L 6.402344 0 L 6.402344 -24.496094 L 3.324219 -24.496094 Z M 3.324219 0 "/></g></g></g><g fill="#ffffff" fill-opacity="1"><g transform="translate(166.887491, 331.500007)"><g><path d="M 14.207031 0.386719 C 19.980469 0.386719 24.53125 -3.078125 25.929688 -8.609375 L 22.816406 -8.609375 C 21.523438 -4.863281 18.335938 -2.625 14.207031 -2.625 C 8.75 -2.625 4.792969 -6.578125 4.792969 -12.214844 C 4.792969 -17.847656 8.75 -21.871094 14.207031 -21.871094 C 18.230469 -21.871094 21.382812 -19.738281 22.675781 -16.203125 L 25.828125 -16.203125 C 24.425781 -21.488281 19.878906 -24.847656 14.207031 -24.847656 C 6.929688 -24.847656 1.644531 -19.5625 1.644531 -12.214844 C 1.644531 -4.898438 6.929688 0.386719 14.207031 0.386719 Z M 14.207031 0.386719 "/></g></g></g><g fill="#ffffff" fill-opacity="1"><g transform="translate(194.041355, 331.500007)"><g><path d="M 20.4375 0 L 23.761719 0 L 13.472656 -24.496094 L 10.601562 -24.496094 L 0.59375 0 L 3.847656 0 L 6.230469 -5.84375 L 18.023438 -5.84375 Z M 12.074219 -20.261719 L 16.867188 -8.679688 L 7.382812 -8.679688 Z M 12.074219 -20.261719 "/></g></g></g><g fill="#ffffff" fill-opacity="1"><g transform="translate(218.430842, 331.500007)"><g><path d="M 18.6875 -24.496094 L 0.734375 -24.496094 L 0.734375 -21.59375 L 8.1875 -21.59375 L 8.1875 0 L 11.234375 0 L 11.234375 -21.59375 L 18.6875 -21.59375 Z M 18.6875 -24.496094 "/></g></g></g><g fill="#ffffff" fill-opacity="1"><g transform="translate(237.886449, 331.500007)"><g><path d="M 3.324219 0 L 6.402344 0 L 6.402344 -24.496094 L 3.324219 -24.496094 Z M 3.324219 0 "/></g></g></g><g fill="#ffffff" fill-opacity="1"><g transform="translate(247.649242, 331.500007)"><g><path d="M 14.488281 0.421875 C 21.90625 0.421875 27.296875 -5.003906 27.296875 -12.214844 C 27.296875 -19.457031 21.90625 -24.882812 14.488281 -24.882812 C 7.070312 -24.882812 1.644531 -19.457031 1.644531 -12.214844 C 1.644531 -5.003906 7.070312 0.421875 14.488281 0.421875 Z M 14.488281 -2.589844 C 8.921875 -2.589844 4.792969 -6.753906 4.792969 -12.214844 C 4.792969 -17.707031 8.921875 -21.871094 14.488281 -21.871094 C 20.050781 -21.871094 24.179688 -17.742188 24.179688 -12.214844 C 24.179688 -6.71875 20.050781 -2.589844 14.488281 -2.589844 Z M 14.488281 -2.589844 "/></g></g></g><g fill="#ffffff" fill-opacity="1"><g transform="translate(276.657702, 331.500007)"><g><path d="M 19.84375 -24.496094 L 19.84375 -5.597656 L 6.125 -24.496094 L 3.324219 -24.496094 L 3.324219 0 L 6.335938 0 L 6.335938 -19.105469 L 20.261719 0 L 22.851562 0 L 22.851562 -24.496094 Z M 19.84375 -24.496094 "/></g></g></g></svg>